name Walk6.mot
datacolumns 19
datarows 22
range 0.84500000 0.95000000
endheader

                time	   L_ground_force_vx	   L_ground_force_vy	   L_ground_force_vz	   L_ground_force_px	   L_ground_force_py	   L_ground_force_pz	   R_ground_force_vx	   R_ground_force_vy	   R_ground_force_vz	   R_ground_force_px	   R_ground_force_py	   R_ground_force_pz	   L_ground_torque_x	   L_ground_torque_y	   L_ground_torque_z	   R_ground_torque_x	   R_ground_torque_y	   R_ground_torque_z	
          0.84500000	         -8.39036343	        144.62202565	        -11.10913351	         -0.23751923	          0.00000000	          0.01142792	          0.00000000	         -0.00000009	         -0.00000001	         -0.00000000	          0.00000000	         -0.00000000	          0.00000000	         -0.03428061	          0.00000000	          0.00000000	         -0.00000000	          0.00000000	
          0.85000000	        -13.51136894	        192.53534110	        -14.27310764	         -0.29642381	          0.00000000	          0.01407343	          0.00000001	         -0.00000009	         -0.00000001	         -0.00000000	          0.00000000	         -0.00000000	          0.00000000	          0.02893993	          0.00000000	          0.00000000	         -0.00000000	          0.00000000	
          0.85500000	        -19.83023667	        243.59117841	        -17.45180742	         -0.35278698	          0.00000000	          0.01653112	          0.00000001	         -0.00000008	         -0.00000001	         -0.00000000	          0.00000000	         -0.00000000	          0.00000000	          0.12338572	          0.00000000	          0.00000000	         -0.00000000	          0.00000000	
          0.86000000	        -27.24665355	        294.26201215	        -20.30810995	         -0.40288852	          0.00000000	          0.01864131	          0.00000002	         -0.00000005	         -0.00000000	          0.00000000	          0.00000000	          0.00000000	          0.00000000	          0.25268309	          0.00000000	          0.00000000	         -0.00000000	          0.00000000	
          0.86500000	        -35.51943240	        341.67411101	        -22.47100284	         -0.44479520	          0.00000000	          0.02031140	          0.00000002	          0.00000000	          0.00000000	          0.00000000	          0.00000000	          0.00000000	          0.00000000	          0.41762392	          0.00000000	          0.00000000	         -0.00000000	          0.00000000	
          0.87000000	        -44.26856193	        384.23202283	        -23.63508850	         -0.47790129	          0.00000000	          0.02150208	          0.00000003	          0.00000009	          0.00000001	          0.00000000	          0.00000000	          0.00000000	          0.00000000	          0.61352408	          0.00000000	          0.00000000	         -0.00000000	          0.00000000	
          0.87500000	        -53.03449436	        421.24564409	        -23.63851700	         -0.50249924	          0.00000000	          0.02221776	          0.00000004	          0.00000020	          0.00000003	          0.00000000	          0.00000000	          0.00000000	          0.00000000	          0.83014187	          0.00000000	          0.00000000	         -0.00000000	          0.00000000	
          0.88000000	        -61.42757944	        452.84049270	        -22.46668090	         -0.51943325	          0.00000000	          0.02249428	          0.00000004	          0.00000036	          0.00000004	          0.00000000	          0.00000000	          0.00000000	          0.00000000	          1.05460619	          0.00000000	          0.00000000	          0.00000000	          0.00000000	
          0.88500000	        -69.27881698	        479.82059384	        -20.21525045	         -0.52983573	          0.00000000	          0.02238941	          0.00000005	          0.00000057	          0.00000006	          0.00000000	          0.00000000	          0.00000000	          0.00000000	          1.27526819	          0.00000000	          0.00000000	          0.00000000	          0.00000000	
          0.89000000	        -76.66000275	        503.33412569	        -17.04221648	         -0.53494151	          0.00000000	          0.02197705	          0.00000005	          0.00000082	          0.00000009	          0.00000000	          0.00000000	          0.00000000	          0.00000000	          1.48340100	          0.00000000	          0.00000000	          0.00000001	          0.00000000	
          0.89500000	        -83.74961826	        524.55085825	        -13.13073069	         -0.53596532	          0.00000000	          0.02133686	          0.00000005	          0.00000110	          0.00000011	          0.00000000	          0.00000000	          0.00000000	          0.00000000	          1.67288544	          0.00000000	          0.00000000	          0.00000001	          0.00000000	
          0.90000000	        -90.64654317	        544.45656297	         -8.66609471	         -0.53402839	          0.00000000	          0.02054668	          0.00000004	          0.00000141	          0.00000014	          0.00000000	          0.00000000	          0.00000000	          0.00000000	          1.83885979	          0.00000000	          0.00000000	          0.00000002	          0.00000000	
          0.90500000	        -97.26229381	        563.76327780	         -3.81547223	         -0.53011447	          0.00000000	          0.01967591	          0.00000002	          0.00000172	          0.00000016	          0.00000000	          0.00000000	          0.00000000	          0.00000000	          1.97777920	          0.00000000	          0.00000000	          0.00000002	          0.00000000	
          0.91000000	       -103.33600723	        582.86624537	          1.27616283	         -0.52504980	          0.00000000	          0.01878264	         -0.00000001	          0.00000199	          0.00000018	          0.00000000	          0.00000000	          0.00000000	          0.00000000	          2.08835635	          0.00000000	          0.00000000	          0.00000003	          0.00000000	
          0.91500000	       -108.52033534	        601.83342769	          6.46385214	         -0.51949589	          0.00000000	          0.01791460	         -0.00000005	          0.00000216	          0.00000019	          0.00000000	          0.00000000	          0.00000000	          0.00000000	          2.17269585	          0.00000000	          0.00000000	          0.00000004	          0.00000000	
          0.92000000	       -112.47900633	        620.45619051	         11.58948249	         -0.51394966	          0.00000000	          0.01710803	         -0.00000012	          0.00000217	          0.00000018	          0.00000000	          0.00000000	          0.00000000	          0.00000000	          2.23518123	          0.00000000	          0.00000000	          0.00000005	          0.00000000	
          0.92500000	       -114.96594726	        638.35626225	         16.49765702	         -0.50875073	          0.00000000	          0.01638573	         -0.00000021	          0.00000191	          0.00000014	          0.00000000	          0.00000000	          0.00000000	          0.00000000	          2.27969883	          0.00000000	          0.00000000	          0.00000005	          0.00000000	
          0.93000000	       -115.87009069	        655.07391077	         21.06697642	         -0.50409997	          0.00000000	          0.01575891	         -0.00000033	          0.00000127	          0.00000006	         -0.00000000	          0.00000000	         -0.00000000	          0.00000000	          2.30683072	          0.00000000	          0.00000000	          0.00000006	          0.00000000	
          0.93500000	       -115.22241844	        670.10609816	         25.22281949	         -0.50008291	          0.00000000	          0.01522880	         -0.00000047	          0.00000012	         -0.00000008	         -0.00000000	          0.00000000	         -0.00000000	          0.00000000	          2.31441309	          0.00000000	          0.00000000	          0.00000006	          0.00000000	
          0.94000000	       -113.17922739	        682.94681110	         28.92640234	         -0.49669373	          0.00000000	          0.01478879	         -0.00000063	         -0.00000170	         -0.00000027	         -0.00000000	          0.00000000	         -0.00000000	          0.00000000	          2.30000881	          0.00000000	          0.00000000	          0.00000004	          0.00000000	
          0.94500000	       -109.99220328	        693.15808960	         32.15455299	         -0.49385795	          0.00000000	          0.01442715	         -0.00000080	         -0.00000431	         -0.00000055	         -0.00000000	          0.00000000	         -0.00000000	          0.00000000	          2.26324657	          0.00000000	          0.00000000	          0.00000002	          0.00000000	
          0.95000000	       -105.97073560	        700.44030973	         34.89201429	         -0.49145418	          0.00000000	          0.01412889	         -0.00000097	         -0.00000786	         -0.00000091	         -0.00000000	          0.00000000	         -0.00000000	          0.00000000	          2.20622817	          0.00000000	          0.00000000	         -0.00000001	          0.00000000	
